#!OML:ASF I:\Actors\actors\Patient Classification 2\Patient 1\Session 1\actor1.ASF
:FULLY-SPECIFIED
:DEGREES
1022
root -0.844471 18.5934 6.63124 -1.53563 2.55222 0.785038
lowerback 1.7397 -0.49961 -2.94461
upperback -4.11861 -0.74673 1.09993
thorax -5.18795 -0.22533 2.83827
lowerneck -18.6174 -2.57683 -2.97862
upperneck 25.8158 -3.84409 3.74206
head 11.6586 -1.54545 1.29543
rclavicle -7.60351e-015 7.95139e-016
rhumerus -54.2881 -4.30054 -88.3813
rradius 47.538
rwrist 10.2499
rhand 15.7608 -46.9554
rfingers 7.12502
rthumb 40.5673 287.992
lclavicle -7.60351e-015 7.95139e-016
lhumerus -48.9697 -9.25871 99.9639
lradius 40.6941
lwrist -10.7472
lhand 19.4126 -13.7177
lfingers 7.12502
lthumb 43.9874 10.1699
rfemur 0 0 0
rtibia 0
rfoot 0 0
rtoes 0
lfemur 0.663873 -5.37392 -15.6924
ltibia 20.2803
lfoot -20.8891 10.2606
ltoes -55.4843
1023
root -0.849783 18.5958 6.63635 -1.40415 2.52846 0.773495
lowerback 1.82325 -0.513055 -3.0008
upperback -4.17891 -0.770274 1.0981
thorax -5.29714 -0.231867 2.87134
lowerneck -18.7147 -2.54114 -2.90039
upperneck 25.6516 -3.76722 3.60148
head 11.6068 -1.52138 1.24015
rclavicle 1.71949e-014 -2.04748e-014
rhumerus -54.45 -4.43591 -88.233
rradius 47.6568
rwrist 10.0271
rhand 15.6442 -46.6124
rfingers 7.12502
rthumb 40.4577 288.301
lclavicle 1.71949e-014 -2.04748e-014
lhumerus -49.1189 -8.76876 99.6622
lradius 40.8648
lwrist -10.5735
lhand 19.4786 -13.8747
lfingers 7.12502
lthumb 44.0491 9.98988
rfemur 0 0 0
rtibia 0
rfoot 0 0
rtoes 0
lfemur 0.567237 -5.42183 -15.657
ltibia 20.2324
lfoot -20.9074 10.329
ltoes -55.4317
1024
root -0.855354 18.5974 6.64057 -1.27964 2.50548 0.757343
lowerback 1.91606 -0.521571 -3.07543
upperback -4.2342 -0.78762 1.11444
thorax -5.40656 -0.234081 2.93351
lowerneck -18.76 -2.51003 -2.87766
upperneck 25.4344 -3.69382 3.51262
head 11.5272 -1.49861 1.21314
rclavicle 2.98177e-016 9.14409e-015
rhumerus -54.6722 -4.55805 -88.0507
rradius 47.8227
rwrist 9.84806
rhand 15.4329 -46.2464
rfingers 7.12502
rthumb 40.259 288.606
lclavicle 2.98177e-016 9.14409e-015
lhumerus -49.207 -8.23293 99.3774
lradius 40.9686
lwrist -10.5854
lhand 19.5763 -14.0067
lfingers 7.12502
lthumb 44.1402 9.82367
rfemur 0 0 0
rtibia 0
rfoot 0 0
rtoes 0
lfemur 0.467923 -5.48151 -15.6155
ltibia 20.1975
lfoot -20.9399 10.3699
ltoes -55.3923
1025
root -0.860984 18.5985 6.64517 -1.16995 2.4539 0.764808
lowerback 2.0228 -0.50339 -3.16269
upperback -4.28106 -0.771312 1.11161
thorax -5.51783 -0.219452 2.98082
lowerneck -18.6986 -2.49223 -2.80692
upperneck 25.0885 -3.6526 3.42302
head 11.3783 -1.48787 1.17308
rclavicle -4.82053e-015 -3.77691e-015
rhumerus -54.915 -4.73025 -87.8703
rradius 48.0026
rwrist 9.60833
rhand 15.245 -45.8279
rfingers 7.12502
rthumb 40.0822 288.971
lclavicle -4.82053e-015 -3.77691e-015
lhumerus -49.2863 -7.79254 99.1289
lradius 41.0958
lwrist -10.5292
lhand 19.7903 -13.8024
lfingers 7.12502
lthumb 44.3397 9.95259
rfemur 0 0 0
rtibia 0
rfoot 0 0
rtoes 0
lfemur 0.382608 -5.55025 -15.6155
ltibia 20.1773
lfoot -20.9462 10.4746
ltoes -55.4601
1026
root -0.866387 18.5995 6.64903 -1.08288 2.39172 0.744879
lowerback 2.14767 -0.472919 -3.18546
upperback -4.32771 -0.737233 1.08725
thorax -5.64137 -0.198989 2.96837
lowerneck -18.5505 -2.46451 -2.67714
upperneck 24.6574 -3.60878 3.31143
head 11.1797 -1.47469 1.1161
rclavicle -8.59744e-015 8.74653e-015
rhumerus -55.1244 -5.03983 -87.6759
rradius 48.112
rwrist 9.38425
rhand 15.009 -45.4953
rfingers 7.12502
rthumb 39.8601 289.237
lclavicle -8.59744e-015 8.74653e-015
lhumerus -49.3373 -7.39204 98.8509
lradius 41.178
lwrist -10.4109
lhand 19.9552 -13.3994
lfingers 7.12502
lthumb 44.4933 10.297
rfemur 0 0 0
rtibia 0
rfoot 0 0
rtoes 0
lfemur 0.319909 -5.61737 -15.5929
ltibia 20.1592
lfoot -20.9453 10.6315
ltoes -55.5556
1027
root -0.870764 18.6011 6.65182 -1.00714 2.33516 0.719061
lowerback 2.30073 -0.454581 -3.19225
upperback -4.37939 -0.719797 1.05993
thorax -5.78543 -0.187076 2.94532
lowerneck -18.4748 -2.43389 -2.59629
upperneck 24.3127 -3.56207 3.25139
head 11.0312 -1.45684 1.0868
rclavicle -3.18055e-015 1.96797e-014
rhumerus -55.3206 -5.33606 -87.5024
rradius 48.2076
rwrist 9.18804
rhand 14.7012 -45.2814
rfingers 7.12502
rthumb 39.5703 289.364
lclavicle -3.18055e-015 1.96797e-014
lhumerus -49.3668 -6.75367 98.428
lradius 41.2597
lwrist -10.531
lhand 20.0121 -13.2167
lfingers 7.12502
lthumb 44.5463 10.4594
rfemur 0 0 0
rtibia 0
rfoot 0 0
rtoes 0
lfemur 0.269688 -5.7021 -15.5629
ltibia 20.1365
lfoot -20.9999 10.7402
ltoes -55.5095
1028
root -0.875209 18.6033 6.65375 -0.924489 2.26931 0.721409
lowerback 2.49004 -0.422746 -3.24094
upperback -4.4495 -0.687645 1.03997
thorax -5.97087 -0.16467 2.95307
lowerneck -18.3184 -2.40664 -2.67327
upperneck 23.9105 -3.52815 3.39755
head 10.8547 -1.43488 1.15729
rclavicle 9.34288e-015 -1.78906e-015
rhumerus -55.5397 -5.54461 -87.3285
rradius 48.3002
rwrist 8.8976
rhand 14.4367 -45.1084
rfingers 7.12502
rthumb 39.3211 289.464
lclavicle 9.34288e-015 -1.78906e-015
lhumerus -49.5004 -6.0163 97.9877
lradius 41.4828
lwrist -10.7317
lhand 20.095 -13.2707
lfingers 7.12502
lthumb 44.6236 10.3756
rfemur 0 0 0
rtibia 0
rfoot 0 0
rtoes 0
lfemur 0.213095 -5.74044 -15.5518
ltibia 20.1138
lfoot -21.0583 10.8045
ltoes -55.3819
1029
root -0.880495 18.6055 6.65544 -0.826285 2.19276 0.714135
lowerback 2.64208 -0.3842 -3.28952
upperback -4.51161 -0.644992 1.0292
thorax -6.12743 -0.137458 2.96874
lowerneck -18.0286 -2.33573 -2.90876
upperneck 23.373 -3.44871 3.79188
head 10.6106 -1.37839 1.34985
rclavicle 1.52567e-014 -3.57812e-015
rhumerus -55.7384 -5.74546 -87.1442
rradius 48.3495
rwrist 8.61321
rhand 14.0798 -44.9589
rfingers 7.12502
rthumb 38.9848 289.517
lclavicle 1.52567e-014 -3.57812e-015
lhumerus -49.6344 -5.54549 97.6954
lradius 41.6848
lwrist -10.6766
lhand 20.0292 -13.3538
lfingers 7.12502
lthumb 44.5623 10.3161
rfemur 0 0 0
rtibia 0
rfoot 0 0
rtoes 0
lfemur 0.135504 -5.7177 -15.5203
ltibia 20.0889
lfoot -21.054 10.8701
ltoes -55.3222
